<svg xmlns="http://www.w3.org/2000/svg" viewBox="0 0 128 128" role="img" aria-label="Cursor">
  <defs>
    <linearGradient id="bg" x1="18" y1="12" x2="112" y2="120" gradientUnits="userSpaceOnUse">
      <stop stop-color="#252a31"/>
      <stop offset="1" stop-color="#060708"/>
    </linearGradient>
    <linearGradient id="shine" x1="64" y1="7" x2="64" y2="75" gradientUnits="userSpaceOnUse">
      <stop stop-color="#fff" stop-opacity=".38"/>
      <stop offset=".72" stop-color="#fff" stop-opacity="0"/>
    </linearGradient>
    <filter id="shadow" x="-20%" y="-15%" width="140%" height="160%">
      <feDropShadow dx="0" dy="5" stdDeviation="4" flood-color="#000" flood-opacity=".3"/>
    </filter>
  </defs>
  <g filter="url(#shadow)">
    <rect x="6" y="5" width="116" height="116" rx="28" fill="url(#bg)"/>
    <rect x="7" y="6" width="114" height="114" rx="27" fill="none" stroke="#fff" stroke-opacity=".28"/>
    <path d="M12 52C18 20 38 9 64 9s46 11 52 43c-15-8-33-12-52-12s-37 4-52 12Z" fill="url(#shine)"/>
    <path d="M11.503.131 1.891 5.678a.84.84 0 0 0-.42.726v11.188c0 .3.162.575.42.724l9.609 5.55a1 1 0 0 0 .998 0l9.61-5.55a.84.84 0 0 0 .42-.724V6.404a.84.84 0 0 0-.42-.726L12.497.131a1.01 1.01 0 0 0-.996 0M2.657 6.338h18.55c.263 0 .43.287.297.515L12.23 22.918c-.062.107-.229.064-.229-.06V12.335a.59.59 0 0 0-.295-.51l-9.11-5.257c-.109-.063-.064-.23.061-.23" fill="#ffffff" transform="translate(34 34) scale(2.5)"/>
  </g>
</svg>
