<svg xmlns="http://www.w3.org/2000/svg" viewBox="0 0 128 128" role="img" aria-label="Hermes">
  <defs>
    <linearGradient id="bg" x1="18" y1="12" x2="112" y2="120" gradientUnits="userSpaceOnUse">
      <stop stop-color="#a788ff"/>
      <stop offset="1" stop-color="#493487"/>
    </linearGradient>
    <linearGradient id="shine" x1="64" y1="7" x2="64" y2="75" gradientUnits="userSpaceOnUse">
      <stop stop-color="#fff" stop-opacity=".38"/>
      <stop offset=".72" stop-color="#fff" stop-opacity="0"/>
    </linearGradient>
    <filter id="shadow" x="-20%" y="-15%" width="140%" height="160%">
      <feDropShadow dx="0" dy="5" stdDeviation="4" flood-color="#000" flood-opacity=".3"/>
    </filter>
  </defs>
  <g filter="url(#shadow)">
    <rect x="6" y="5" width="116" height="116" rx="28" fill="url(#bg)"/>
    <rect x="7" y="6" width="114" height="114" rx="27" fill="none" stroke="#fff" stroke-opacity=".28"/>
    <path d="M12 52C18 20 38 9 64 9s46 11 52 43c-15-8-33-12-52-12s-37 4-52 12Z" fill="url(#shine)"/>
    <g transform="translate(28 28) scale(3)" color="#ffffff" stroke-width="2.05" stroke-linecap="round" stroke-linejoin="round"><path d="M11.017 2.814a1 1 0 0 1 1.966 0l1.051 5.558a2 2 0 0 0 1.594 1.594l5.558 1.051a1 1 0 0 1 0 1.966l-5.558 1.051a2 2 0 0 0-1.594 1.594l-1.051 5.558a1 1 0 0 1-1.966 0l-1.051-5.558a2 2 0 0 0-1.594-1.594l-5.558-1.051a1 1 0 0 1 0-1.966l5.558-1.051a2 2 0 0 0 1.594-1.594z" />
  <path d="M20 2v4" />
  <path d="M22 4h-4" />
  <circle cx="4" cy="20" r="2" /></g>
  </g>
</svg>
