<svg xmlns="http://www.w3.org/2000/svg" viewBox="0 0 128 128" role="img" aria-label="Notability">
  <defs>
    <linearGradient id="bg" x1="18" y1="12" x2="112" y2="120" gradientUnits="userSpaceOnUse">
      <stop stop-color="#318de9"/>
      <stop offset="1" stop-color="#1454a2"/>
    </linearGradient>
    <linearGradient id="shine" x1="64" y1="7" x2="64" y2="75" gradientUnits="userSpaceOnUse">
      <stop stop-color="#fff" stop-opacity=".38"/>
      <stop offset=".72" stop-color="#fff" stop-opacity="0"/>
    </linearGradient>
    <filter id="shadow" x="-20%" y="-15%" width="140%" height="160%">
      <feDropShadow dx="0" dy="5" stdDeviation="4" flood-color="#000" flood-opacity=".3"/>
    </filter>
  </defs>
  <g filter="url(#shadow)">
    <rect x="6" y="5" width="116" height="116" rx="28" fill="url(#bg)"/>
    <rect x="7" y="6" width="114" height="114" rx="27" fill="none" stroke="#fff" stroke-opacity=".28"/>
    <path d="M12 52C18 20 38 9 64 9s46 11 52 43c-15-8-33-12-52-12s-37 4-52 12Z" fill="url(#shine)"/>
    <g transform="translate(28 28) scale(3)" color="#ffffff" stroke-width="2.05" stroke-linecap="round" stroke-linejoin="round"><path d="M14.364 13.634a2 2 0 0 0-.506.854l-.837 2.87a.5.5 0 0 0 .62.62l2.87-.837a2 2 0 0 0 .854-.506l4.013-4.009a1 1 0 0 0-3.004-3.004z" />
  <path d="M14.487 7.858A1 1 0 0 1 14 7V2" />
  <path d="M20 19.645V20a2 2 0 0 1-2 2H6a2 2 0 0 1-2-2V4a2 2 0 0 1 2-2h8a2.4 2.4 0 0 1 1.704.706l2.516 2.516" />
  <path d="M8 18h1" /></g>
  </g>
</svg>
