<svg xmlns="http://www.w3.org/2000/svg" viewBox="0 0 128 128" role="img" aria-label="Önizleme">
  <defs>
    <linearGradient id="bg" x1="18" y1="12" x2="112" y2="120" gradientUnits="userSpaceOnUse">
      <stop stop-color="#ffffff"/>
      <stop offset="1" stop-color="#d6e1ec"/>
    </linearGradient>
    <linearGradient id="shine" x1="64" y1="7" x2="64" y2="75" gradientUnits="userSpaceOnUse">
      <stop stop-color="#fff" stop-opacity=".38"/>
      <stop offset=".72" stop-color="#fff" stop-opacity="0"/>
    </linearGradient>
    <filter id="shadow" x="-20%" y="-15%" width="140%" height="160%">
      <feDropShadow dx="0" dy="5" stdDeviation="4" flood-color="#000" flood-opacity=".3"/>
    </filter>
  </defs>
  <g filter="url(#shadow)">
    <rect x="6" y="5" width="116" height="116" rx="28" fill="url(#bg)"/>
    <rect x="7" y="6" width="114" height="114" rx="27" fill="none" stroke="#fff" stroke-opacity=".28"/>
    <path d="M12 52C18 20 38 9 64 9s46 11 52 43c-15-8-33-12-52-12s-37 4-52 12Z" fill="url(#shine)"/>
    <g transform="translate(28 28) scale(3)" color="#172131" stroke-width="1.8"><path d="M3 7V5a2 2 0 0 1 2-2h2" />
  <path d="M17 3h2a2 2 0 0 1 2 2v2" />
  <path d="M21 17v2a2 2 0 0 1-2 2h-2" />
  <path d="M7 21H5a2 2 0 0 1-2-2v-2" />
  <circle cx="12" cy="12" r="1" />
  <path d="M18.944 12.33a1 1 0 0 0 0-.66 7.5 7.5 0 0 0-13.888 0 1 1 0 0 0 0 .66 7.5 7.5 0 0 0 13.888 0" /></g>
  </g>
</svg>
