<svg xmlns="http://www.w3.org/2000/svg" viewBox="0 0 128 128" role="img" aria-label="VLC">
  <defs>
    <linearGradient id="bg" x1="18" y1="12" x2="112" y2="120" gradientUnits="userSpaceOnUse">
      <stop stop-color="#ffa61e"/>
      <stop offset="1" stop-color="#ef7800"/>
    </linearGradient>
    <linearGradient id="shine" x1="64" y1="7" x2="64" y2="75" gradientUnits="userSpaceOnUse">
      <stop stop-color="#fff" stop-opacity=".38"/>
      <stop offset=".72" stop-color="#fff" stop-opacity="0"/>
    </linearGradient>
    <filter id="shadow" x="-20%" y="-15%" width="140%" height="160%">
      <feDropShadow dx="0" dy="5" stdDeviation="4" flood-color="#000" flood-opacity=".3"/>
    </filter>
  </defs>
  <g filter="url(#shadow)">
    <rect x="6" y="5" width="116" height="116" rx="28" fill="url(#bg)"/>
    <rect x="7" y="6" width="114" height="114" rx="27" fill="none" stroke="#fff" stroke-opacity=".28"/>
    <path d="M12 52C18 20 38 9 64 9s46 11 52 43c-15-8-33-12-52-12s-37 4-52 12Z" fill="url(#shine)"/>
    <path d="M12.0319 0c-.8823 0-1.0545.136-1.0545.136-.1738.056-.3556.255-.4105.43L9.683 3.3808c.4729.1729 1.3222.4266 2.2337.4266 1.0987 0 2.017-.3494 2.3763-.5075L13.4352.566c-.055-.1755-.237-.3707-.4067-.4374 0 0-.1142-.1286-.9966-.1286zm3.5645 7.455c-.3601.34-1.3276.9373-3.6797.9373-2.2929 0-3.189-.5678-3.5213-.9113l-1.3887 4.4227c.2272.3614 1.2539 1.5594 4.8847 1.5594 3.7569 0 4.8539-1.3467 5.0649-1.6737zm-8.5897 4.4487l-1.0025 3.1922H4.3428c-.2486 0-.5097.1932-.5826.4315l-2.334 7.6317a.3962.3962 0 0 0-.0169.1537c-.0008.0053-.002.0099-.002.016 0 .0839.0233.226.0233.226.0322.2456.2612.4452.5098.4452h20.1192c.2487 0 .4768-.1994.5098-.4453 0 0 .0234-.142.0234-.226a.0245.0245 0 0 0-.0025-.01.3201.3201 0 0 0 .0024-.0313.4096.4096 0 0 0-.019-.1282l-2.3339-7.6318c-.0729-.2383-.334-.4314-.5826-.4314h-1.6636l.2005.6391c-.2407.4854-1.4886 2.38-6.3027 2.38-4.6003 0-5.8288-1.73-6.1107-2.3072z" fill="#ffffff" transform="translate(33 33) scale(2.583)"/>
  </g>
</svg>
