<svg xmlns="http://www.w3.org/2000/svg" viewBox="0 0 128 128" role="img" aria-label="Hava Durumu">
  <defs>
    <linearGradient id="bg" x1="18" y1="12" x2="112" y2="120" gradientUnits="userSpaceOnUse">
      <stop stop-color="#6fc4ff"/>
      <stop offset="1" stop-color="#277bc8"/>
    </linearGradient>
    <linearGradient id="shine" x1="64" y1="7" x2="64" y2="75" gradientUnits="userSpaceOnUse">
      <stop stop-color="#fff" stop-opacity=".38"/>
      <stop offset=".72" stop-color="#fff" stop-opacity="0"/>
    </linearGradient>
    <filter id="shadow" x="-20%" y="-15%" width="140%" height="160%">
      <feDropShadow dx="0" dy="5" stdDeviation="4" flood-color="#000" flood-opacity=".3"/>
    </filter>
  </defs>
  <g filter="url(#shadow)">
    <rect x="6" y="5" width="116" height="116" rx="28" fill="url(#bg)"/>
    <rect x="7" y="6" width="114" height="114" rx="27" fill="none" stroke="#fff" stroke-opacity=".28"/>
    <path d="M12 52C18 20 38 9 64 9s46 11 52 43c-15-8-33-12-52-12s-37 4-52 12Z" fill="url(#shine)"/>
    <g transform="translate(28 28) scale(3)" color="#ffffff" stroke-width="1.8"><path d="M12 2v2" />
  <path d="m4.93 4.93 1.41 1.41" />
  <path d="M20 12h2" />
  <path d="m19.07 4.93-1.41 1.41" />
  <path d="M15.947 12.65a4 4 0 0 0-5.925-4.128" />
  <path d="M13 22H7a5 5 0 1 1 4.9-6H13a3 3 0 0 1 0 6Z" /></g>
  </g>
</svg>
