<svg xmlns="http://www.w3.org/2000/svg" viewBox="0 0 128 128" role="img" aria-label="YouTube Music">
  <defs>
    <linearGradient id="bg" x1="18" y1="12" x2="112" y2="120" gradientUnits="userSpaceOnUse">
      <stop stop-color="#ffffff"/>
      <stop offset="1" stop-color="#f1f1f1"/>
    </linearGradient>
    <linearGradient id="shine" x1="64" y1="7" x2="64" y2="75" gradientUnits="userSpaceOnUse">
      <stop stop-color="#fff" stop-opacity=".38"/>
      <stop offset=".72" stop-color="#fff" stop-opacity="0"/>
    </linearGradient>
    <filter id="shadow" x="-20%" y="-15%" width="140%" height="160%">
      <feDropShadow dx="0" dy="5" stdDeviation="4" flood-color="#000" flood-opacity=".3"/>
    </filter>
  </defs>
  <g filter="url(#shadow)">
    <rect x="6" y="5" width="116" height="116" rx="28" fill="url(#bg)"/>
    <rect x="7" y="6" width="114" height="114" rx="27" fill="none" stroke="#fff" stroke-opacity=".28"/>
    <path d="M12 52C18 20 38 9 64 9s46 11 52 43c-15-8-33-12-52-12s-37 4-52 12Z" fill="url(#shine)"/>
    <path d="M12 0C5.376 0 0 5.376 0 12s5.376 12 12 12 12-5.376 12-12S18.624 0 12 0zm0 19.104c-3.924 0-7.104-3.18-7.104-7.104S8.076 4.896 12 4.896s7.104 3.18 7.104 7.104-3.18 7.104-7.104 7.104zm0-13.332c-3.432 0-6.228 2.796-6.228 6.228S8.568 18.228 12 18.228s6.228-2.796 6.228-6.228S15.432 5.772 12 5.772zM9.684 15.54V8.46L15.816 12l-6.132 3.54z" fill="#ff0000" transform="translate(33 33) scale(2.583)"/>
  </g>
</svg>
